<?xml version="1.0" encoding="UTF-8"?>
<svg width="700pt" height="700pt" version="1.1" viewBox="0 0 700 700" xmlns="http://www.w3.org/2000/svg">
 <path d="m303.99 140c0-4.6406 1.8438-9.0938 5.125-12.375s7.7344-5.125 12.375-5.125h208.02c6.25 0 12.027 3.3359 15.156 8.75 3.125 5.4141 3.125 12.086 0 17.5-3.1289 5.4141-8.9062 8.75-15.156 8.75h-208.02c-4.6406 0-9.0938-1.8438-12.375-5.125s-5.125-7.7344-5.125-12.375zm-67.934-47.566-43.875 55.668-13.578-17.938c-3.7734-5-9.9297-7.6094-16.148-6.8438-6.2148 0.76953-11.555 4.793-14 10.562-2.4453 5.7695-1.625 12.402 2.1484 17.406l27.336 35.961c3.2578 4.3477 8.3555 6.9336 13.789 7h0.17578c5.3555-0.003906 10.418-2.4609 13.734-6.668l57.891-73.5c3.875-4.9062 4.8359-11.508 2.5195-17.316-2.3125-5.8086-7.5469-9.9414-13.734-10.844-6.1875-0.89844-12.387 1.5703-16.258 6.4766zm293.46 170.07h-208.02c-6.25 0-12.027 3.3359-15.156 8.75-3.125 5.4141-3.125 12.086 0 17.5 3.1289 5.4141 8.9062 8.75 15.156 8.75h208.02c6.25 0 12.027-3.3359 15.156-8.75 3.125-5.4141 3.125-12.086 0-17.5-3.1289-5.4141-8.9062-8.75-15.156-8.75zm0 140h-208.02c-6.25 0-12.027 3.3359-15.156 8.75-3.125 5.4141-3.125 12.086 0 17.5 3.1289 5.4141 8.9062 8.75 15.156 8.75h208.02c6.25 0 12.027-3.3359 15.156-8.75 3.125-5.4141 3.125-12.086 0-17.5-3.1289-5.4141-8.9062-8.75-15.156-8.75zm-268.07-159.25v73.5c0 4.6406-1.8438 9.0938-5.125 12.375s-7.7344 5.125-12.375 5.125h-73.5c-4.6406 0-9.0898-1.8438-12.375-5.125-3.2812-3.2812-5.125-7.7344-5.125-12.375v-73.5c0-4.6406 1.8438-9.0938 5.125-12.375 3.2852-3.2812 7.7344-5.125 12.375-5.125h73.5c4.6406 0 9.0938 1.8438 12.375 5.125s5.125 7.7344 5.125 12.375zm-35 17.5h-38.5v38.5h38.5zm35 122.5v73.5c0 4.6406-1.8438 9.0938-5.125 12.375s-7.7344 5.125-12.375 5.125h-73.5c-4.6406 0-9.0898-1.8438-12.375-5.125-3.2812-3.2812-5.125-7.7344-5.125-12.375v-73.5c0-4.6406 1.8438-9.0938 5.125-12.375 3.2852-3.2812 7.7344-5.125 12.375-5.125h73.5c4.6406 0 9.0938 1.8438 12.375 5.125s5.125 7.7344 5.125 12.375zm-35 17.5h-38.5v38.5h38.5z"/>
</svg>
